<?xml version="1.0" encoding="utf-8"?>
<!DOCTYPE svg PUBLIC "-//W3C//DTD SVG 1.1 Basic//EN" "http://www.w3.org/Graphics/SVG/1.1/DTD/svg11-basic.dtd">
<svg version="1.1" baseProfile="basic"
	 xmlns="http://www.w3.org/2000/svg" xmlns:xlink="http://www.w3.org/1999/xlink" x="0px" y="0px" width="300px" height="100px"
	 viewBox="0 0 300 100" xml:space="preserve">
<rect fill="none" width="300" height="100"/>
<g fill="#ffffff">
	<path d="M156.969,29.503l-2.948,2.013c-3.511-0.58-8.136-0.545-8.136-0.545c2.607,2.086,3.302,3.45,3.302,5.862
		c0,8.111-13.377,14.535-30.569,14.535c-4.864,0-9.21-0.323-13.729-1.205c-3.302,1.286-4.517,2.089-4.517,3.375
		c0,0.882,0.867,1.769,2.086,2.406c2.78,1.207,6.079,1.848,17.024,3.291c13.895,1.85,17.719,2.655,21.715,4.099
		c4.688,1.685,7.118,4.172,7.118,6.987c0,8.108-17.543,14.212-41.341,14.212c-20.848,0-34.741-4.335-34.741-10.761
		c0-2.646,2.262-4.979,6.603-6.825c3.128-1.364,5.905-2.249,13.376-4.094l4.861-1.204c-7.468-1.771-10.596-3.293-10.596-5.144
		c0-1.443,2.26-3.293,6.778-5.138l3.644-1.524l2.606-1.126c-4.86-2.33-6.949-4.739-6.949-7.869c0-8.513,14.07-14.936,32.486-14.936
		c5.035,0,8.163,0.323,13.371,1.367h14.977c6.769,0,0.949,0.507,5.987,0.184l0.369,0.494L156.969,29.503z M128.23,66.954
		c-2.593-0.798-5.528-1.356-10.883-2.075c-5.881-0.882-9.682-1.283-11.757-1.283h-0.691c-2.594,0.163-7.604,1.283-11.581,2.643
		c-5.702,1.993-8.469,4.237-8.469,7.031c0,4.79,9.682,7.986,24.194,7.986c14.697,0,26.102-3.831,26.102-8.871
		C135.146,70.149,132.729,68.231,128.23,66.954z M122.702,29.243h-0.691c-9.508,0-15.901,4.796-15.901,11.507
		c0,4.953,4.492,7.752,12.442,7.752c9.508,0,16.594-4.72,16.594-11.268C135.146,32.362,130.306,29.243,122.702,29.243z"/>
	<path d="M170.605,58.856V39.768c0-4.305-2.727-5.756-5.211-5.756c-2.487,0-5.273,1.451-5.273,5.756v19.089h-7.875
		v-31.57h7.696v2.905c2.062-2.178,4.967-3.269,7.877-3.269c3.149,0,5.697,1.034,7.449,2.786c2.547,2.545,3.215,5.512,3.215,8.968
		v20.179H170.605z"/>
	<path d="M206.854,55.341c-1.939,2.06-5.151,3.871-9.816,3.871c-4.663,0-7.818-1.812-9.755-3.871
		c-2.849-2.97-3.573-6.545-3.573-12.302c0-5.694,0.725-9.266,3.573-12.237c1.937-2.062,5.092-3.879,9.755-3.879
		c4.665,0,7.877,1.817,9.816,3.879c2.849,2.971,3.576,6.543,3.576,12.237C210.431,48.795,209.703,52.371,206.854,55.341z
		 M200.735,35.403c-0.909-0.909-2.121-1.392-3.697-1.392s-2.727,0.482-3.636,1.392c-1.636,1.638-1.814,4.364-1.814,7.636
		c0,3.274,0.179,6.061,1.814,7.693c0.909,0.911,2.06,1.397,3.636,1.397s2.788-0.486,3.697-1.397c1.639-1.633,1.82-4.419,1.82-7.693
		C202.556,39.768,202.374,37.042,200.735,35.403z"/>
	<path d="M225.638,58.856c-6.483,0-9.21-4.543-9.21-9.027V15.712h7.878v33.632c0,1.877,0.786,2.848,2.791,2.848h3.03
		v6.665H225.638z"/>
	<path d="M235.089,21.894v-6.421h8.059v6.421H235.089z M235.211,58.856v-31.57h7.877v31.57H235.211z"/>
	<path d="M266.84,58.856v-2.729c-2.121,2.124-4.114,3.027-7.755,3.027c-3.573,0-6.18-0.903-8.057-2.783
		c-1.701-1.761-2.609-4.305-2.609-7.094c0-5.024,3.455-9.145,10.788-9.145h7.449v-1.579c0-3.451-1.693-4.967-5.873-4.967
		c-3.03,0-4.425,0.729-6.061,2.604l-5.032-4.91c3.093-3.391,6.126-4.359,11.396-4.359c8.846,0,13.449,3.757,13.449,11.149v20.784
		H266.84z M266.656,45.527h-6.237c-2.851,0-4.424,1.332-4.424,3.573c0,2.181,1.457,3.635,4.544,3.635
		c2.187,0,3.578-0.182,4.97-1.514c0.846-0.792,1.147-2.062,1.147-4.004V45.527z"/>
	<path d="M49.615,58.856V39.768c0-4.305-2.729-5.756-5.211-5.756c-2.422,0-5.271,1.451-5.271,5.577v19.268h-7.875
		V39.768c0-4.305-2.729-5.756-5.211-5.756c-2.484,0-5.273,1.451-5.273,5.756v19.089h-7.877v-31.57h7.696v2.905
		c2.059-2.116,4.97-3.269,7.878-3.269c3.513,0,6.361,1.272,8.36,3.996c2.667-2.783,5.515-3.996,9.454-3.996
		c3.149,0,5.998,1.034,7.755,2.786c2.545,2.545,3.453,5.512,3.453,8.968v20.179H49.615z"/>
	<path d="M80.441,58.856v-2.729c-2.124,2.124-4.123,3.027-7.758,3.027c-3.575,0-6.18-0.903-8.057-2.783
		c-1.698-1.761-2.607-4.305-2.607-7.094c0-5.024,3.453-9.145,10.786-9.145h7.451v-1.579c0-3.451-1.695-4.967-5.875-4.967
		c-3.03,0-4.425,0.729-6.061,2.604l-5.029-4.91c3.09-3.391,6.12-4.359,11.394-4.359c8.846,0,13.449,3.757,13.449,11.149v20.784
		H80.441z M80.257,45.527h-6.239c-2.851,0-4.424,1.332-4.424,3.573c0,2.181,1.454,3.635,4.544,3.635c2.181,0,3.575-0.182,4.97-1.514
		c0.846-0.792,1.149-2.062,1.149-4.004V45.527z"/>
	<g>
		<g>
			<path d="M281.979,28.819l-0.925-2.29h-0.673v2.29h-1.576v-6.136h2.745c1.365,0,2.032,0.971,2.032,1.98
				c0,0.83-0.439,1.346-0.928,1.59l1.152,2.566H281.979z M281.323,24.045h-0.941v1.237h0.941c0.407,0,0.651-0.293,0.651-0.619
				S281.73,24.045,281.323,24.045z"/>
			<path d="M275.027,25.749c0-3.328,2.71-6.038,6.038-6.038s6.038,2.71,6.038,6.038c0,3.334-2.71,6.044-6.038,6.044
				S275.027,29.083,275.027,25.749z M276.614,25.749c0,2.642,1.871,4.558,4.451,4.558s4.451-1.916,4.451-4.558
				c0-2.637-1.871-4.552-4.451-4.552S276.614,23.112,276.614,25.749z"/>
		</g>
	</g>
</g>
</svg>
